<svg width="24" height="24" viewBox="0 0 24 24" fill="none" xmlns="http://www.w3.org/2000/svg">
<path d="M12.0032 5.44156C9.86667 5.44156 9.61587 5.45108 8.77143 5.48918C7.99047 5.52411 7.56825 5.6543 7.28571 5.76543C6.91111 5.91149 6.64444 6.08295 6.36508 6.36237C6.08571 6.64179 5.91111 6.90851 5.76825 7.28319C5.66032 7.56579 5.52698 7.98809 5.49206 8.7692C5.45397 9.61381 5.44444 9.86466 5.44444 12.0016C5.44444 14.1385 5.45397 14.3894 5.49206 15.234C5.52698 16.0151 5.65714 16.4374 5.76825 16.72C5.91429 17.0947 6.08571 17.3614 6.36508 17.6408C6.64444 17.9202 6.91111 18.0949 7.28571 18.2377C7.56825 18.3457 7.99047 18.4791 8.77143 18.514C9.61587 18.5521 9.86667 18.5616 12.0032 18.5616C14.1397 18.5616 14.3905 18.5521 15.2349 18.514C16.0159 18.4791 16.4381 18.3489 16.7206 18.2377C17.0952 18.0917 17.3619 17.9202 17.6413 17.6408C17.9206 17.3614 18.0952 17.0947 18.2381 16.72C18.346 16.4374 18.4794 16.0151 18.5143 15.234C18.5524 14.3894 18.5619 14.1385 18.5619 12.0016C18.5619 9.86466 18.5524 9.61381 18.5143 8.7692C18.4794 7.98809 18.3492 7.56579 18.2381 7.28319C18.0921 6.90851 17.9206 6.64179 17.6413 6.36237C17.3619 6.08295 17.0952 5.90832 16.7206 5.76543C16.4381 5.65747 16.0159 5.52411 15.2349 5.48918C14.3905 5.44791 14.1365 5.44156 12.0032 5.44156ZM12.0032 4C14.1746 4 14.4476 4.00953 15.3016 4.04763C16.1524 4.08573 16.7333 4.22227 17.2413 4.41913C17.7683 4.62235 18.2127 4.89859 18.6571 5.34312C19.1016 5.78766 19.3746 6.23536 19.581 6.75928C19.7778 7.26732 19.9143 7.84838 19.9524 8.70252C19.9905 9.55348 20 9.82655 20 11.9984C20 14.1703 19.9905 14.4433 19.9524 15.2975C19.9143 16.1484 19.7778 16.7295 19.581 17.2407C19.3778 17.7678 19.1016 18.2123 18.6571 18.6569C18.2127 19.1014 17.7651 19.3745 17.2413 19.5809C16.7333 19.7777 16.1524 19.9143 15.2984 19.9524C14.4444 19.9905 14.1746 20 12 20C9.8254 20 9.55556 19.9905 8.70159 19.9524C7.85079 19.9143 7.26984 19.7777 6.75873 19.5809C6.23174 19.3777 5.7873 19.1014 5.34286 18.6569C4.89841 18.2123 4.6254 17.7646 4.41905 17.2407C4.22222 16.7327 4.08571 16.1516 4.04762 15.2975C4.00952 14.4433 4 14.1734 4 11.9984C4 9.82338 4.00952 9.55348 4.04762 8.69935C4.08571 7.84838 4.22222 7.26732 4.41905 6.7561C4.62222 6.22901 4.89841 5.78448 5.34286 5.33995C5.7873 4.89542 6.23492 4.62235 6.75873 4.41596C7.26667 4.21909 7.84762 4.08256 8.70159 4.04445C9.55873 4.00953 9.83175 4 12.0032 4Z" fill="white"/>
<path d="M12.0032 7.89284C14.2698 7.89284 16.1111 9.7313 16.1111 12.0016C16.1111 14.2719 14.273 16.1103 12.0032 16.1103C9.73333 16.1103 7.89524 14.2719 7.89524 12.0016C7.89524 9.7313 9.73333 7.89284 12.0032 7.89284ZM12.0032 14.6656C13.4762 14.6656 14.6698 13.4717 14.6698 11.9984C14.6698 10.5251 13.4762 9.33122 12.0032 9.33122C10.5302 9.33122 9.33651 10.5251 9.33651 11.9984C9.33651 13.4717 10.5302 14.6656 12.0032 14.6656Z" fill="white"/>
<path d="M7.73333 8.68664C7.20384 8.68664 6.7746 8.25732 6.7746 7.72772C6.7746 7.19813 7.20384 6.7688 7.73333 6.7688C8.26283 6.7688 8.69206 7.19813 8.69206 7.72772C8.69206 8.25732 8.26283 8.68664 7.73333 8.68664Z" fill="white"/>
</svg>
