<svg width="24" height="24" viewBox="0 0 24 24" fill="none" xmlns="http://www.w3.org/2000/svg">
<path d="M13.558 15.6611C14.4308 15.4631 15.2779 15.1412 16.048 14.6708C16.6384 14.3242 16.8181 13.5567 16.433 12.9873C16.0736 12.4178 15.2779 12.2445 14.6875 12.6159C12.942 13.6805 10.6574 13.6805 8.9119 12.6159C8.32151 12.2693 7.55143 12.4178 7.16639 12.9873C6.83269 13.5567 7.01237 14.2994 7.60277 14.6461C8.37285 15.1165 9.21993 15.4383 10.0927 15.6364L7.70544 17.9389C7.21773 18.4093 7.21773 19.1768 7.70544 19.6472C7.96214 19.8948 8.27017 19.9938 8.60387 19.9938C8.93757 19.9938 9.2456 19.87 9.5023 19.6472L11.8639 17.3695L14.2255 19.6472C14.7132 20.1176 15.5089 20.1176 15.9966 19.6472C16.4844 19.1768 16.4844 18.4093 15.9966 17.9389L13.558 15.6611Z" fill="white"/>
<path d="M11.8382 12.2692C14.1998 12.2692 16.125 10.4124 16.125 8.13462C16.125 5.85687 14.1998 4 11.8382 4C9.47661 4 7.52574 5.85687 7.52574 8.13462C7.52574 10.4124 9.45094 12.2692 11.8382 12.2692ZM11.8382 6.42631C12.8136 6.42631 13.6094 7.19381 13.6094 8.13462C13.6094 9.07544 12.8136 9.84294 11.8382 9.84294C10.8628 9.84294 10.067 9.07544 10.067 8.13462C10.0413 7.19381 10.8371 6.42631 11.8382 6.42631Z" fill="white"/>
</svg>
