<svg width="24" height="24" viewBox="0 0 24 24" fill="none" xmlns="http://www.w3.org/2000/svg">
<path d="M9.03168 18C15.0694 18 18.3718 12.9981 18.3718 8.66044C18.3718 8.51837 18.3718 8.37694 18.3622 8.23615C19.0047 7.77148 19.5593 7.19613 20 6.53705C19.4009 6.80251 18.7653 6.9766 18.1146 7.0535C18.7998 6.64328 19.3127 5.99806 19.5578 5.23794C18.9134 5.62028 18.2084 5.88974 17.4733 6.03469C16.9783 5.50844 16.3237 5.15997 15.6108 5.04321C14.8978 4.92644 14.1663 5.04789 13.5293 5.38876C12.8923 5.72963 12.3855 6.27092 12.0872 6.92886C11.7888 7.5868 11.7157 8.32472 11.879 9.02841C10.5739 8.96299 9.29715 8.62385 8.13161 8.03302C6.96607 7.44218 5.93782 6.61285 5.1136 5.59887C4.69382 6.32149 4.56525 7.17692 4.75407 7.991C4.94288 8.80508 5.43489 9.51659 6.12992 9.98067C5.60751 9.96519 5.0965 9.82428 4.64 9.56982C4.64 9.58326 4.64 9.59734 4.64 9.61142C4.64021 10.3693 4.90257 11.1037 5.38258 11.6902C5.86259 12.2767 6.53071 12.6791 7.2736 12.8291C6.79032 12.9609 6.28325 12.9802 5.79136 12.8854C6.00113 13.5377 6.40951 14.108 6.95941 14.5168C7.5093 14.9255 8.17319 15.1521 8.85824 15.165C7.69583 16.0785 6.25988 16.5744 4.78144 16.5729C4.52026 16.5724 4.25933 16.5566 4 16.5255C5.50121 17.4888 7.24794 17.9998 9.03168 17.9974" fill="white"/>
</svg>
