<svg width="24" height="24" viewBox="0 0 24 24" fill="none" xmlns="http://www.w3.org/2000/svg">
<path fill-rule="evenodd" clip-rule="evenodd" d="M20.4057 7.69395C20.5303 7.30249 20.4057 7.01779 19.8541 7.01779H18.0214C17.5587 7.01779 17.3452 7.2669 17.2206 7.53381C17.2206 7.53381 16.2776 9.81139 14.9609 11.2883C14.5338 11.7153 14.3381 11.8577 14.1068 11.8577C13.9822 11.8577 13.8221 11.7153 13.8221 11.3238V7.67616C13.8221 7.21352 13.6797 7 13.2883 7H10.4057C10.121 7 9.94306 7.21352 9.94306 7.42705C9.94306 7.87189 10.6014 7.97865 10.6726 9.2242V11.9288C10.6726 12.516 10.5658 12.6228 10.3345 12.6228C9.71175 12.6228 8.19929 10.3274 7.29182 7.71174C7.11388 7.19573 6.93594 7 6.47331 7H4.62278C4.08897 7 4 7.24911 4 7.51601C4 7.99644 4.62278 10.4164 6.90036 13.6192C8.41281 15.8078 10.5658 16.9822 12.5053 16.9822C13.6797 16.9822 13.8221 16.7153 13.8221 16.2705V14.6157C13.8221 14.0819 13.9288 13.9929 14.3025 13.9929C14.5694 13.9929 15.0498 14.1352 16.1352 15.1851C17.3808 16.4306 17.5943 17 18.2883 17H20.121C20.6548 17 20.9039 16.7331 20.7616 16.2171C20.6014 15.7011 19.9964 14.9537 19.2135 14.0641C18.7865 13.5658 18.1459 13.0142 17.9502 12.7473C17.6833 12.3915 17.7545 12.2491 17.9502 11.9288C17.9324 11.9288 20.1744 8.76156 20.4057 7.69395Z" fill="white"/>
</svg>
